<?xml version="1.0" encoding="UTF-8"?>
<svg data-bbox="333.384 389.437 2566.418 2504.293" viewBox="0 0 4900 3300" xmlns="http://www.w3.org/2000/svg" data-type="color">
    <g>
        <path d="M2548.37 1072.75c81.12-32.24 142.32-107.19 172.32-191.68s31.31-177.63 17.4-266.49c-4.98-31.84-12.64-64.97-33.68-88.75-18.49-20.89-45.08-31.92-71.4-39.65-119.96-35.26-256.72-11.87-353.72 69.31-97 81.19-148.14 220.51-118.86 346.11 19.47 83.53 71.01 138.31 152.72 150.91 84.39 13.02 147.46 55.12 235.23 20.24Z" fill="#ffda24" data-color="1"/>
        <path d="M884.51 2252.38c-42.88 145.88-236.12 199.38-330.9 75.57-118.67-121.46-134.01-426.07 61.87-468.66 121.52-29.47 158.79 89 154.75-14.9-1.72-199.55 99.31-271.38 169.23-432.39 109.47-265.17-20.14-254.69 255.4-212.17 156.5 16.55 318.71-4.26 468.28-53.79 32.92 1.69 51.39 36.78 71.91 58.66 321.21 346.24 434.58 861.43-25.59 1139.21-109.51 79.18-90.17 361.63-77.74 489.05 2.09 18.84-22.19 11.94-33.3 13.62-120.53 1.15-241.04-1.26-361.55-2.73-45.51-.11-91.06 1.11-136.54 2.96-20.22.82-24.08-7.21-21.27-27.37 2.95-270.79-27.01-419.67-194.56-567.08Z" fill="#ffda24" data-color="1"/>
        <path d="M1790.93 859.99c-195.37-149.78-410.32-156.51-657.6-75.57-34.95-39.06 11.76-132.89-112.24-62.8-74.94 48.58-146.74 103.09-222.95 149.45 1.19-50.87 9.32-139.45-63.8-92.89-123.95 114.7-245.52 347.1-298.74 510.9-29.44 108.72-102 611.56 114.66 491.87 168.64-38.57 143.04 55.2 211.87-148.22 59.78-148.59 155.41-280.76 183.91-441.96 10.24-41.88 10.41-95.02 66.89-80.68 185.43 30.36 366.71-20.55 533.26-95.92 42.23 3.54 83.4-15.23 108.03-51.02 181.8 166.29 409.41 166.95 136.7-103.17Z" fill="#2965ab" data-color="2"/>
        <path d="M931.34 2367.82c-37.85-43.38-92.73 37.26-125.89 51.92-28.18 71.86 71.95 135.53 133.67 134.24 88.61-11.76 37.63-147.74-7.78-186.16" fill="#2965ab" data-color="2"/>
        <path d="M2121.16 1873.46c4.38 9.7 10.62 18.96 12.85 29.16 29.57 134.87 7.25 258.11-83.25 362.53-89.36 103.11-200.76 167.03-332.08 197.44-103.39 23.94-206.67 26.64-311.23 17.97-65.55-5.44-130.34-14.72-192.92-36.71-37.55-13.19-72.89-30.83-104.33-56.14-5.56-4.48-11.12-9.57-14.88-15.59-2.32-3.72-1.24-9.73-1.68-14.71 4.49-.21 9.06-1.04 13.44-.43 3.01.42 5.91 2.6 8.62 4.38 70.99 46.59 149.31 70.85 232.07 80.82 81.33 9.8 163.1 18.01 244.76 9.48 94.73-9.9 187.96-28.97 273.22-76.15 63.21-34.97 119.33-79.77 167.08-135.49 50.18-58.56 76.24-127.83 81.61-205 2.62-37.55-.49-75.52-.73-113.3-.09-13.64.54-27.29 1.07-40.93.08-2.1 1.46-4.14 2.23-6.21 1.38-.38 2.75-.75 4.13-1.13Z" fill="#040404" data-color="3"/>
        <path d="M987.99 1574.13c-3.39-30.6-.53-62.27 9.17-93.32 31.05-99.32 121.45-161.89 221.55-152.73 23.94 2.19 47.02 8.64 68.81 19.27 55.58 27.1 102.35 66.02 141.27 115.05 6.48 8.16 11.16 17.88 16.38 27.06 1.49 2.63 1.98 5.88 2.92 8.84-.86.61-1.71 1.22-2.57 1.83-4.64-5.18-9.19-10.45-13.92-15.54-46.39-49.83-97.59-93.34-160.21-119.07-118.01-48.49-244.95 30.95-257.83 161.77-7.34 74.51 23.04 133.61 81.02 175.97 76.38 55.81 158.91 57.61 243.31 21.64 45.85-19.54 84.63-49.33 108.98-95.29 7.59-14.32 10.77-31.15 15.85-46.87 1.83-5.66 2.87-11.64 5.07-17.13 2.72-6.79 7.61-6.81 10.34-.6 3.52 8.03 6.75 16.71 7.59 25.38 1.62 16.7-3.33 32.41-10.52 47.32-16.25 33.7-39.46 61.46-69.59 82.14-89.37 61.35-184.26 79.09-284.67 32.29-65.23-30.41-109.48-81.42-128.33-154.21-.24-.94-.88-1.77-1.75-3.48-16.6 13.43-33 26.76-49.46 40.01-52.3 42.1-104.46 84.4-157.07 126.07-12.23 9.69-26.04 17.25-39.21 25.65-2.46 1.57-5.35 2.41-8.04 3.58l-1.86-2.13c1.88-2.67 3.4-5.74 5.69-7.96 26.39-25.58 51.79-52.4 79.61-76.2 43.82-37.49 89.09-73.17 134.18-109.04 9.8-7.8 21.42-13.15 33.31-20.29Z" fill="#040404" data-color="3"/>
        <path d="M698.03 1879.21c-6.29-4.37-12.5-8.87-18.88-13.09-37.32-24.73-77.19-37.42-121.5-25.53-29.52 7.92-51.05 27.84-68.78 52.62-25.85 36.13-38.64 77.45-39.92 121.73-4 138.2 47.23 249.95 153.67 333.61 24.92 19.58 53.61 32.13 84.87 37.09 71.45 11.35 127.84-30.43 140.92-104.14 1.22-6.88 2.63-13.84 5.04-20.33 1.47-3.95 5.01-7.08 7.62-10.58 2.69 3.81 7.5 7.5 7.7 11.44.81 15.85 2.76 32.34-.36 47.58-11.92 58.13-61.56 101.87-119.83 107.79-54.4 5.53-102.01-13.63-145.04-45.68-75.93-56.55-122.93-134.37-148.7-226.35-18.55-66.22-21.8-133.23-2.08-200.02 12.48-42.26 34.19-78.65 68.1-106.19 54.03-43.87 134.77-38.69 182.31 11.74 7.05 7.48 12.4 16.7 18.53 25.11-1.23 1.06-2.45 2.13-3.68 3.19Z" fill="#040404" data-color="3"/>
        <path d="M544.69 1028.88c-8.88-3.39-12.33-9.37-11.25-16.34 2.35-15.06 4.16-30.62 9.35-44.73 22.48-61.09 56.25-115.76 92.63-168.73 25.34-36.89 52.02-72.87 85.58-102.17 13.84-12.09 29.76-22.84 46.43-29.96 26.81-11.45 50.76.6 62.76 28.23 8.54 19.66 10.07 40.69 10.49 61.87.1 4.95.01 9.9.01 17.67 5.5-4.49 9.3-7.25 12.73-10.43 31.3-29.05 62.25-58.52 93.89-87.16 29-26.26 59.41-50.82 94.54-67.79 14.2-6.86 29.38-12.45 44.69-15.75 39.58-8.54 68.74 10.42 77.43 51.38 9.68 45.6-.56 88.19-23.46 127.8-1.24 2.14-3.69 3.53-6.49 6.11-4.92-24.35.25-46.38 1.75-68.63 1.24-18.52 2.28-37.71-1-55.74-4.98-27.4-20.33-36.94-46.21-28.86-19.83 6.19-40.24 14.19-56.99 26.4-33.47 24.39-65.02 51.7-96.56 78.81-21.87 18.8-42.13 39.62-63.65 58.87-7.98 7.14-16.98 13.59-26.49 18.22-15.7 7.64-29.51-.21-32.52-17.88-1.5-8.82-.83-18.01-1.51-27-1.16-15.32-1.24-30.91-4.27-45.85-5.05-24.87-18.07-30.85-39.64-18.9-10.15 5.63-19.83 12.71-28.51 20.56-40.49 36.62-73.44 80.23-102.89 126.33-26.5 41.49-50.36 84.81-74.45 127.89-9.3 16.63-16.29 34.71-16.4 55.79Z" fill="#040404" data-color="3"/>
        <path d="M1552.4 1538.16c-12.64-15.47-14.47-32.56-13.45-50.02 6.32-108.68 88.08-215.08 189.09-244.14 77.12-22.19 147.9-2.71 212.96 41.66 51.77 35.3 83.87 85.45 95.29 148.87 19.15 106.37-45.13 243.79-195.37 243.74-19.14 0-38.07-1.63-55.81-10.08-2.76-1.31-5.47-2.73-8.2-4.1-.02-1.22-.03-2.43-.05-3.65 9.42-1.67 18.79-3.73 28.27-4.94 25.26-3.22 51.11-3.62 75.76-9.48 124.44-29.58 165.97-181.92 96.87-283.92-35.25-52.03-85.17-81.2-143.83-94.4-90.63-20.39-162.41 15.04-219.22 86.23-34.27 42.93-55.7 93.05-62.12 149.03-1.25 10.95-.18 22.18-.18 35.2Z" fill="#040404" data-color="3"/>
        <path d="M1499.17 1066.14c-10.59-4.58-20.32-8.6-29.89-13.01-4.39-2.03-9.62-3.87-12.37-7.5-3.25-4.28-6.5-10.92-5.54-15.6.95-4.62 6.59-10.38 11.18-11.58 9.9-2.61 20.41-2.85 30.71-3.68 35.13-2.83 70.35-5.45 104.12-16.75 11.52-3.86 22.71-9.47 33.16-15.85 8.21-5.01 7.82-9.63 1.06-16.92-5.18-5.58-12.23-11.68-6.39-19.62 5.63-7.66 14.28-4.19 21.42-.88 18.91 8.76 25.23 31.63 11.96 48.54-6.85 8.73-16.65 16-26.51 20.97-30.31 15.26-63.35 20.12-96.46 24.09-5.77.69-11.55 1.34-19.35 2.24 3.7 1.87 5.71 2.95 7.77 3.92 13.9 6.52 17.67 19.27 6.92 30.44-9.15 9.52-20.22 17.84-31.79 23.92-34.76 18.25-72.71 25.41-110.99 29.61-121.09 13.3-239.86-1.42-356.96-33.8-10.19-2.82-20.08-7.37-29.5-12.35-3.57-1.89-5.43-7.26-8.07-11.05 4.13-.71 8.44-2.59 12.38-1.97 64.16 10.01 128.06 22.17 192.44 30.12 76.99 9.51 154.36 10.07 230.68-7.05 22.46-5.04 43.88-15.03 65.74-22.86 1.35-.48 2.41-1.85 4.3-3.37Z" fill="#040404" data-color="3"/>
        <path d="M407.26 1842.27c-3.29-4.67-5.65-7.62-7.59-10.84-26.01-43.21-39.99-91.37-50.05-140.4-37.25-181.6-9.47-353.75 73.72-517.06 7.02-13.77 16.54-26.31 25.92-38.58 3.25-4.25 9.42-6.49 14.66-8.52 1.85-.71 5.71 1.32 7.15 3.29.99 1.35.06 5.18-1.16 7.15-50.52 81.76-79.83 171.94-97.1 266.56-22.87 125.38-10.85 248.57 23.64 370.22 5.61 19.78 8.34 40.44 12.24 60.73.31 1.63-.63 3.52-1.44 7.45Z" fill="#040404" data-color="3"/>
        <path d="M1637.33 2145.34c-58.89-1.64-118.53-21.34-170.34-63.64-9.22-7.53-16.82-17.51-23.88-27.35-2.36-3.3-.71-9.68-.9-14.66 4.71.42 10.35-.75 13.96 1.54 16.78 10.63 32.24 23.67 49.53 33.22 101.98 56.29 201.42 52.75 296.45-17.15 34.23-25.18 58.61-58.29 64.46-103.27 1.02-7.85 3.91-15.93 13.28-15.84 9.61.09 12.59 8.14 13.97 16.47 2.97 17.99-2.43 34.52-9.32 50.49-12.53 29.07-32.41 52.24-55.97 72.16-50.69 42.86-118.99 67.94-191.25 68.04Z" fill="#040404" data-color="3"/>
        <path d="M683.18 2129.79c-17.18-36.1-31.86-71.59-56.75-100.82-24.79-29.12-51.23-25.38-67.4 10.04-5.08 11.13-6.35 24.13-9.97 38.74-2.96-5.39-6.14-9.59-7.73-14.34-7.61-22.7 3.08-53.41 23.76-69.4 19.66-15.2 44.35-15.83 64.42 1.41 12.98 11.15 25.67 24.28 34.08 39.19 19.17 33.99 35.73 69.56 53.09 104.64 3.38 6.84 4 14.35-1.45 20.73-5.52 6.45-12.69 5.31-19.84 3.95-14.79-2.8-29.65-7.96-44.39-7.64-25.38.55-35.87 17.67-29.33 43.15 8.97 34.95 35.09 47.77 67 32.91 13.5-6.29 26.99-12.58 40.55-18.71 2.64-1.19 5.61-1.63 8.42-2.42l1.95 2.61c-4.9 7.1-8.92 15.14-14.85 21.14-22.5 22.75-47.39 40.24-81.18 29.93-36.8-11.23-61.46-61.36-49.18-98.92 8.41-25.69 36.94-42.23 67.64-39.09 6.34.65 12.65 1.72 21.18 2.9Z" fill="#040404" data-color="3"/>
        <path d="M1302.4 696.94c3.93-2.66 7.54-6.7 11.83-7.73 14.39-3.48 28.96-7.96 43.56-8.38 146.3-4.18 282.79 32.68 408.62 109.68 25.86 15.82 48.24 37.96 71.39 58.21 7.53 6.59 12.4 16.45 18.49 24.81-.65.83-1.31 1.66-1.96 2.48-3.3-.59-6.95-.44-9.84-1.9-12.13-6.12-25.09-11.22-35.84-19.38-111.14-84.35-237.06-128.78-372.22-147.02-39.26-5.3-79.24-4.86-118.89-6.99-4.43-.24-8.89-.03-13.34-.03z" fill="#040404" data-color="3"/>
        <path d="M971.83 1115.34c4.78 18.48 1.52 37.15-.54 55.49-11.18 99.79-45.58 190.62-103.12 271.19-51.9 72.68-92.04 151.3-121.29 236.29-5.53 16.07-14.14 31-21.33 46.46l-4.59-1.17c1.21-12.16 1.19-24.62 3.84-36.44 16.17-72.23 42.04-140.29 83.07-201.56 12.15-18.14 24.03-36.5 36.84-54.12 59.21-81.45 94.8-173.39 113.73-272.83 1.99-10.47 3.78-20.99 6.07-31.39.94-4.28 2.98-8.3 4.52-12.44.93.18 1.87.35 2.8.52" fill="#040404" data-color="3"/>
        <path d="M1206.4 1538.58c-17.91 7.66-31.43 20.9-41.99 37.21-8.43 13.02-15.24 27.15-23.55 40.26-2.61 4.12-7.76 6.51-11.75 9.69-1.29-5.37-4.64-11.26-3.53-16.03 10.78-46.48 35.13-82.42 78.73-101.24 39.9-17.21 81.93-17.21 123.9-11.77 15.5 2.01 30.76 7.26 45.65 12.49 6.37 2.24 12.49 7.35 16.85 12.78 2.64 3.28 3.73 10.99 1.76 14.27-1.83 3.04-9.04 4.66-13.23 3.74-11.62-2.56-22.75-7.45-34.35-10.13-13.03-3.02-26.36-4.63-40.49-7.02.64 2.88.58 4 1.08 4.65 19.71 25.7 4.63 64.28-34.16 67.11-22.56 1.65-42.45-6.92-55.49-26.48-5.05-7.58-5.29-18.6-7.72-28.06.03-.76.07-1.51.11-2.27-.6.27-1.21.54-1.81.8Zm42.61-4.35c-.43.06-3.65-.24-6.1 1.04-4.09 2.15-9.84 4.66-10.86 8.24-1 3.53 2.02 9.61 5.04 12.77 9.05 9.47 20.53 13.95 33.44 12.37 7.99-.98 15.71-4.41 16.71-13.95.96-9.23-5.33-15.61-12.74-18.1-7.16-2.4-15.33-1.59-25.49-2.38Z" fill="#040404" data-color="3"/>
        <path d="M1855.17 1452.24c3.01 36.01-18 62.09-51.27 64.77-30.68 2.47-49.07-15.1-51.71-52.27-11.81 9.17-22.85 16.87-32.86 25.81-7.28 6.51-12.99 14.87-19.86 21.93-2.18 2.24-7.31 4.9-8.53 3.92-2.6-2.07-5.49-6.96-4.77-9.7 2.26-8.55 4.91-17.51 9.64-24.74 16.48-25.23 39.92-41.72 67.11-52.15 41.91-16.07 84.16-16.97 125.5 1.82 11.29 5.13 21.27 13.76 31.12 21.75 4.37 3.54 8.51 9.07 9.84 14.47 1.24 4.99.35 13.1-2.84 15.99-3.17 2.87-10.78 2.3-15.7.73-4.6-1.47-8.31-6.12-12.25-9.57-12.52-10.96-26.4-19.06-43.41-22.76Zm-56.62 38.16c9.92-.67 19.47-4.91 26.4-14.12 3.93-5.22 5.52-12.5-.76-15.7-11.16-5.69-21.72-14.77-36.32-8.56-9.41 4-14.2 8.95-13.07 19.52 1.18 10.98 10.61 18.87 23.74 18.86Z" fill="#040404" data-color="3"/>
        <path d="M1813.08 2893.72c-6.97-8.37-15.23-15.94-20.69-25.26-21.57-36.89-31.63-78.02-38.61-120.04-11.4-68.7-17.41-137.87-15.44-207.64.28-10.02 1.41-20.03 2.65-29.98.84-6.8.99-15.74 9.98-15.8 9.57-.06 10.09 9.21 10.59 16.35 1.46 21 2.1 42.06 3.36 63.07 5.03 83.79 11.82 167.33 36.39 248.04 3.88 12.74 9.09 25.06 12.5 37.92 2.64 9.93 3.42 20.4 5.03 30.62-1.93.91-3.85 1.82-5.78 2.73Z" fill="#040404" data-color="3"/>
        <path d="M1018.51 2647.98c-.74 64.34-5.62 128.39-15.65 191.9-1.75 11.06-7.21 21.92-12.77 31.77-4.03 7.13-9.25 6.06-11.43-1.83-2.09-7.56-3.66-15.81-3.07-23.56 3.84-50.39 9.05-100.67 12.38-151.1 2.78-42.08 3.58-84.29 5.34-126.45.32-7.68.05-15.6 1.87-22.92 1.06-4.28 5.73-7.59 8.77-11.34 3.37 3.47 8.85 6.46 9.73 10.51 2.58 12.01 4.24 24.41 4.63 36.72.69 22.08.2 44.19.2 66.29Z" fill="#040404" data-color="3"/>
        <path d="M1640.77 2329c10.16-8.88 18.63-5.61 26.76-5.42 25.75.6 51.79 3.67 77.18.77 21.69-2.47 43.55-9.68 63.74-18.66 37.6-16.72 55.6-50.01 63.17-90.25.25-1.31-.11-2.89.48-3.95 2.84-5.1 5.91-10.07 8.89-15.09 4.73 4.47 12.49 8.29 13.53 13.54 2 10.08 2.09 21.48-.38 31.45-10.68 43.11-35.84 74.3-75.51 92.07-51.19 22.93-103.45 27.04-156.54 7.55-6.97-2.56-13.18-7.35-21.32-12.01" fill="#040404" data-color="3"/>
        <path d="M1936.35 1194.97c-6.56-3.91-13.34-6.76-18.73-11.36-46.32-39.53-92.41-79.36-138.52-119.15-2.96-2.56-6.15-5.15-8.2-8.43-1.74-2.79-1.99-6.58-2.9-9.93 3.25-.06 6.87-1.1 9.68.03 7.17 2.89 14.14 6.45 20.91 10.28 41.34 23.4 77.52 54.14 112.52 86.35 12.26 11.28 23.29 24.3 26.41 42.15.29 1.64.6 3.3.61 4.95 0 .91-.6 1.83-1.77 5.11Z" fill="#040404" data-color="3"/>
        <path d="M1612.1 1700.39c-7.61-10.52-6.58-21.38-4.12-32.21 6.4-28.24 21.49-49.32 48.51-59.14 30.83-11.2 57.43 9.1 57.04 42.84-.38 33.9-21.06 59.46-53.15 65.5-2.7.51-5.56.07-8.34.07-.64-.86-1.28-1.71-1.93-2.57 6.5-6.85 12.49-14.33 19.6-20.42 13.06-11.2 20.09-25.03 20.14-42.58.05-17.86-11.01-26.61-27.56-20.89-24.83 8.58-36.51 29.33-44.03 53.46-1.36 4.38-2.1 8.97-3.31 13.41-.21.76-1.36 1.24-2.86 2.52Z" fill="#040404" data-color="3"/>
        <path d="M951.65 2619.35c-6.47-1.33-13.18-1.92-19.36-4.11-39.89-14.14-77.7-32.75-110.49-60.53-10.85-9.19-19.6-21.15-28.75-32.33-3.24-3.95-5.95-9.15-6.82-14.16-.76-4.39 1.41-9.31 2.28-14 3.94 1.95 8.88 2.93 11.67 6 20.03 22.12 42.6 40.67 67.79 56.19 24.62 15.17 48.61 31.44 72.59 47.68 4.64 3.14 7.97 8.36 11.91 12.61-.27.88-.54 1.77-.82 2.65" fill="#040404" data-color="3"/>
        <path d="M1047.63 1943.78c0-5.17-.93-8.41.19-10.41 2.53-4.51 5.56-11.01 9.35-11.81 3.83-.81 11.09 3.14 12.86 6.98 4.09 8.9 6.35 18.87 8.33 28.63 4.91 24.21 9.27 48.53 13.78 72.82.55 2.94 1.56 6.32.69 8.89-1.49 4.38-3.52 10.55-6.78 11.78-3.9 1.47-11.24.2-13.74-2.84-5.28-6.42-10.24-14.33-12.01-22.41-4.51-20.49-7.3-41.39-10.55-62.16-1.13-7.25-1.59-14.62-2.1-19.47Z" fill="#040404" data-color="3"/>
        <path d="M1235.23 1985.26c-3.62 6.88-6.5 12.38-9.39 17.87-5.26-3.99-13.24-6.83-15.31-12.15-9.27-23.73-17.18-48.05-24.82-72.41-2.14-6.82-2.83-14.66-1.99-21.76.51-4.34 4.67-10.79 8.13-11.52 4.1-.86 9.2 3.4 13.86 5.48.24.11.42.52.51.83 9.63 31.07 19.25 62.14 29.01 93.66" fill="#040404" data-color="3"/>
        <path d="M1943.72 1787.81c.24-5.54-.43-8.93.7-11.46 1.36-3.04 3.88-6.88 6.56-7.55 2.61-.65 7.15 1.41 8.88 3.81 3.21 4.46 5.45 9.85 7.27 15.16 3.67 10.7 6.9 21.56 10.06 32.44 1.11 3.81 2.54 8.04 1.9 11.72-.77 4.44-3.01 11.48-5.65 12.01-3.98.82-10.62-1.7-12.98-5.13-5.16-7.49-9.33-16.11-12.05-24.88-2.83-9.14-3.49-19.01-4.69-26.14Z" fill="#040404" data-color="3"/>
        <path d="M2060.8 1808.36c-3.97 5.19-6.47 11.49-10.48 12.78-3.45 1.11-10.12-2.27-12.75-5.77-9.87-13.12-14.06-28.64-12.26-45.17.42-3.92 4.57-9.19 8.11-10.4 2.96-1.02 9.71 1.95 11.01 4.92 6.05 13.85 10.78 28.31 16.38 43.64Z" fill="#040404" data-color="3"/>
        <path d="M2359.25 1390.59c-3.84 8.87-9.39 17.05-16.27 24.22a81.3 81.3 0 0 1-24.57 17.49c-9.34 4.29-19.69 6.92-30.34 7.28-10.63.3-21.54-1.51-31.76-5.62-10.17-4.19-19.7-10.51-27.53-18.66-7.8-8.18-14.01-17.91-18.38-28.31l-.43-.97-.36-.99-.72-1.98-1.43-3.97c-.78-2.68-1.57-5.38-2.24-8.09l-.84-4.08-.41-2.05-.2-1.02-.14-1.02-1.03-7.9c-.88-8.21-2.47-15.98-5.01-22.22-1.28-3.11-2.81-5.71-4.53-7.96-1.74-2.24-3.71-4.11-6.21-5.87-2.49-1.76-5.53-3.43-9.14-5.1-3.6-1.68-7.75-3.38-12.27-5.43-4.51-2.05-9.41-4.47-14.3-7.65-4.89-3.17-9.72-7.13-13.9-11.74-4.19-4.6-7.74-9.77-10.48-15.06-.35-.65-.73-1.34-1.05-1.97l-.87-1.81c-.58-1.2-1.16-2.41-1.7-3.68-.55-1.26-1.11-2.49-1.62-3.83-.51-1.33-1.05-2.6-1.51-4.02-.48-1.39-.96-2.75-1.37-4.25l-.63-2.21-.55-2.35c-.38-1.52-.65-3.26-.92-4.93-.15-.82-.21-1.78-.3-2.67-.08-.91-.18-1.78-.19-2.78-.02-.97-.04-1.95-.04-2.92.05-1.04.12-2.09.21-3.13.06-1.01.28-2.18.46-3.27l.31-1.66.47-1.73c1.24-4.56 3.66-9.38 6.98-13.2 3.3-3.87 7.2-6.54 10.84-8.38a43.5 43.5 0 0 1 10.43-3.67c1.68-.42 3.19-.6 4.78-.87 1.51-.18 3.04-.36 4.51-.45 2.92-.18 5.76-.23 8.46-.12 5.45.18 10.58.76 15.57 1.55s9.81 1.78 14.54 2.92c9.47 2.25 18.59 4.98 27.54 7.97 17.88 6.04 35.12 13.05 52.05 20.57 16.93 7.54 33.54 15.57 49.94 23.98 16.4 8.4 32.59 17.14 48.63 26.11 8.11 4.57 15.72 8.89 23.62 13.11 7.85 4.21 15.75 8.26 23.72 12.1 15.92 7.67 32.14 14.6 48.4 19.81 4.06 1.26 8.12 2.43 12.14 3.42 4.01.96 8 1.77 11.83 2.29 3.81.52 7.52.73 10.53.53.39-.02.69-.08 1.04-.11.34-.04.7-.06.96-.13l.84-.15c.2-.07.41-.13.62-.18.13-.02.18-.05.23-.08.06-.03.11-.05.17-.06.17-.03.12-.06.14-.05 0 0 .06.01 0 .03a.4.4 0 0 0-.14.09c-.06.04-.04.08-.14.15-.09.06-.18.14-.25.23-.09.17-.37.39-.51.67-.07.14-.14.28-.24.42-.09.14-.16.3-.21.46-.1.32-.25.54-.27.85-.06.24-.12.38-.08.59 0 .56.04-.05-.27-1.02-.09-.45-.4-1.1-.61-1.7l-.48-1.01c-.16-.34-.3-.68-.52-1.06-.4-.73-.77-1.46-1.27-2.23l-.7-1.15-.79-1.17c-4.25-6.3-10.04-12.65-16.17-18.65-12.37-12.06-26.35-23.18-40.77-33.65-3.61-2.62-7.27-5.19-10.93-7.75l-5.54-3.79c-1.85-1.27-3.68-2.45-5.53-3.68-7.38-4.85-14.92-9.45-22.59-13.82-15.34-8.74-31.24-16.47-47.52-23.37s-32.96-12.93-49.91-18.37c-16.95-5.45-34.18-10.25-51.64-15.1-8.74-2.43-17.53-4.88-26.4-7.57s-17.83-5.63-26.91-9.35c-4.54-1.89-9.11-4-13.7-6.57-4.58-2.59-9.2-5.58-13.62-9.57-4.38-3.97-8.61-8.97-11.58-15.03-2.97-6.04-4.58-12.84-4.81-19.17-.26-6.36.54-12.28 1.78-17.75l.49-2.04.25-1.02.36-1.17.75-2.34c.26-.78.49-1.55.86-2.34l1.05-2.34c.37-.77.68-1.55 1.16-2.3l1.36-2.26c.47-.75.91-1.5 1.48-2.19 2.12-2.85 4.61-5.46 7.36-7.59 1.38-1.03 2.77-2.12 4.23-2.89 1.45-.84 2.91-1.69 4.37-2.27 5.88-2.63 11.68-3.8 17.16-4.38 10.94-1 20.9.16 30.5 1.79 9.57 1.7 18.75 4.06 27.77 6.69 18 5.29 35.3 11.68 52.4 18.32 17.08 6.66 33.93 13.64 50.71 20.6 16.77 6.96 33.47 13.92 50.2 20.57 16.72 6.64 33.47 12.99 50.29 18.54 16.8 5.5 33.75 10.3 50.39 12.8 2.09.35 4.13.53 6.2.8 2.05.19 4.1.39 6.11.5 2.01.08 4.03.2 5.99.16 1.9.04 4.11-.1 6.24-.19 4.3-.12 8.51-.54 12.74-.88l6.24-.79c1.05-.11 2.07-.29 3.08-.48l3.06-.53c8.11-1.5 15.88-3.7 22.88-6.87.91-.35 1.72-.83 2.57-1.25l2.52-1.3 2.38-1.46 1.2-.72 1.12-.81 2.25-1.6 2.11-1.76 1.06-.88.98-.96c.65-.65 1.33-1.25 1.96-1.92 2.52-2.68 4.8-5.65 6.93-8.84 2.06-3.28 3.98-6.78 5.75-10.52 3.51-7.54 6.49-15.93 9.61-24.75 3.12-8.8 6.45-18.04 10.66-27.2 1.09-2.29 2.14-4.58 3.35-6.84l.88-1.7c.31-.58.53-1.06 1.01-1.85.85-1.42 1.72-2.9 2.6-4.07 3.54-4.97 7.17-8.72 10.79-12.29 3.62-3.55 7.26-6.73 10.89-9.84 3.64-3.12 7.27-6.05 10.91-8.99 7.27-5.82 14.52-11.45 21.71-17.08 14.39-11.23 28.51-22.49 42.18-34.22 13.67-11.71 26.84-23.9 39.31-36.72 24.89-25.63 46.9-54.02 63.45-85.38 8.26-15.67 15.17-32.03 20.44-48.92 2.61-8.45 4.93-17 6.68-25.68.99-4.31 1.66-8.7 2.45-13.05.35-2.19.63-4.39.95-6.58l.46-3.29c.15-1.1.24-2.2.36-3.31l.69-6.62c.18-2.21.31-4.43.47-6.64.38-4.42.4-8.88.59-13.31.07-2.22.01-4.45.03-6.67-.03-2.23.05-4.45-.07-6.68-.18-4.45-.24-8.91-.63-13.35-1.2-17.8-3.83-35.56-7.69-53.09-3.9-17.48-9.06-34.6-15.55-51.09-3.17-8.28-6.88-16.31-10.72-24.24-.98-1.97-2.03-3.9-3.04-5.86-1.04-1.94-1.99-3.93-3.12-5.81-2.2-3.8-4.3-7.66-6.68-11.34-1.17-1.85-2.3-3.73-3.49-5.57l-3.67-5.43-1.84-2.72-1.93-2.64-3.86-5.28c-5.37-6.86-10.83-13.65-16.8-19.95-11.74-12.8-24.86-24.17-38.78-34.33-1.75-1.26-3.54-2.46-5.31-3.69l-2.66-1.84c-.89-.61-1.81-1.16-2.71-1.75l-5.44-3.48-5.56-3.28-2.78-1.64-2.83-1.54-5.67-3.08-5.77-2.88c-.96-.47-1.92-.97-2.89-1.43l-2.93-1.34c-7.77-3.69-15.79-6.8-23.85-9.76-4.07-1.37-8.11-2.83-12.24-4.02-2.06-.6-4.1-1.3-6.18-1.83l-6.22-1.67c-33.29-8.51-68.04-11.35-102.35-8.48l-3.22.25-3.21.34-6.42.68-6.4.86-3.2.43-3.19.53-6.38 1.05-6.34 1.25-3.17.62-3.15.72-6.31 1.43-6.26 1.62-3.13.81-3.11.9-6.21 1.81-6.16 1.99-3.08 1-3.05 1.09-6.1 2.18-6.03 2.36-3.01 1.19-2.98 1.27c-31.91 13.27-61.58 32.04-87.46 55.21l-4.77 4.44-2.39 2.22-2.32 2.35-9.29 9.39c-.77.79-1.56 1.55-2.31 2.36l-2.2 2.47-4.4 4.93c-2.91 3.3-5.95 6.5-8.62 10l-8.28 10.3c-2.64 3.53-5.16 7.14-7.76 10.7l-1.93 2.68c-.64.89-1.31 1.77-1.89 2.71l-3.59 5.55-3.6 5.55c-.59.93-1.21 1.84-1.79 2.78l-1.65 2.87-6.62 11.46-6.05 11.8-1.51 2.95-1.37 3.02-2.73 6.05-2.73 6.05-2.44 6.19c-3.4 8.19-6.2 16.64-8.97 25.08l-3.79 12.81-3.27 12.99c-4.06 17.41-6.91 35.16-8.65 53.1s-2.39 36.06-2.16 54.23c.23 18.18 1.38 36.41 3.16 54.68.87 9.13 1.94 18.29 3.07 27.46 1.17 9.19 2.39 18.37 3.41 27.72 1 9.35 1.88 18.81 2.18 28.61q.06 3.645.06 7.29c0 3.645.04 4.84-.06 7.29-.09 2.45-.25 4.9-.37 7.34l-.22 3.66c-.09 1.22-.24 2.46-.37 3.68-.28 2.46-.56 4.9-.87 7.34-.37 2.46-.87 4.92-1.31 7.35-.41 2.42-1.08 4.89-1.72 7.31-.32 1.21-.62 2.41-1.01 3.62l-1.25 3.61-.63 1.78c-.19.59-.43 1.18-.71 1.77l-1.6 3.49c-.48 1.15-1.17 2.29-1.83 3.4-.67 1.11-1.26 2.21-2.09 3.25-.38.53-.77 1.04-1.17 1.55l-.59.75-.68.71c-.92.94-1.76 1.88-2.85 2.62-.98.81-2.13 1.45-3.26 1.97-1.18.45-2.4.82-3.59.69 2.03-1.23 3.2-3.18 4.1-5.15.91-1.95 1.47-4.07 1.89-6.2.79-4.28 1.1-8.62 1.04-13.07v-3.29c-.05-1.1-.15-2.24-.2-3.34-.14-2.23-.17-4.4-.46-6.66l-.62-6.66c-.31-2.24-.58-4.47-.85-6.69-.15-1.11-.24-2.21-.41-3.33l-.52-3.35c-.32-2.23-.67-4.46-.97-6.68-.72-4.47-1.53-8.94-2.2-13.4-1.53-8.81-3.28-17.88-4.84-27.05-1.6-9.17-2.98-18.5-4.28-27.85-1.28-9.38-2.51-18.78-3.54-28.26-2.1-18.94-3.57-38.07-4.08-57.31-1.07-38.46 1.95-77.46 10.42-115.52 4.16-19.04 9.96-37.75 17.08-55.89l2.64-6.82 2.95-6.69 2.96-6.68 1.49-3.34 1.64-3.26 6.57-13.04 7.2-12.68 1.8-3.17c.62-1.04 1.29-2.05 1.94-3.08l3.91-6.13 3.91-6.13c.63-1.04 1.35-2.01 2.05-2.99l2.11-2.95c2.83-3.92 5.59-7.89 8.48-11.77l9.01-11.31c2.93-3.84 6.2-7.35 9.37-10.97l4.78-5.4 2.39-2.7c.82-.88 1.67-1.72 2.5-2.58l10.06-10.25 2.52-2.56 2.64-2.48 5.29-4.96 5.44-4.78 2.72-2.38 2.79-2.3 5.6-4.57 5.72-4.39 2.87-2.19c.96-.72 1.95-1.4 2.92-2.11l5.86-4.19 5.98-4.01 2.99-2c1-.65 2.03-1.27 3.04-1.91l6.1-3.79 6.2-3.61 3.1-1.8c1.04-.59 2.1-1.14 3.15-1.71l6.31-3.4 6.39-3.21 3.2-1.6 3.24-1.51 6.49-2.99 6.56-2.8 3.28-1.39 3.32-1.3 6.65-2.58 6.71-2.39 3.36-1.19 3.39-1.1 6.78-2.17 6.83-1.98 3.42-.98 3.44-.89 6.88-1.76 6.93-1.56 3.46-.78 3.48-.68 6.97-1.35 7-1.15 3.5-.57 3.51-.47 7.03-.93 7.05-.72 3.53-.35 3.54-.25c37.69-2.93 75.88.37 112.68 9.99 36.78 9.62 72.1 26.05 103.28 48.88 15.51 11.5 30.11 24.4 43.16 38.84 6.63 7.12 12.7 14.76 18.63 22.49l4.27 5.94 2.13 2.97 2.03 3.05 4.05 6.1c1.31 2.06 2.56 4.16 3.84 6.23 2.61 4.13 4.92 8.43 7.33 12.68 1.23 2.11 2.28 4.32 3.41 6.48 1.11 2.18 2.25 4.33 3.32 6.53 4.19 8.82 8.21 17.73 11.64 26.87 7 18.22 12.49 36.99 16.57 56.01 4.03 18.99 6.76 38.36 7.92 57.9.37 4.88.42 9.79.57 14.68.11 2.45.01 4.91.02 7.36-.03 2.45 0 4.91-.09 7.36-.24 4.91-.31 9.82-.77 14.72-.2 2.45-.36 4.9-.58 7.35l-.82 7.33c-.14 1.22-.26 2.45-.43 3.66l-.53 3.65c-.37 2.43-.69 4.87-1.1 7.29-.9 4.83-1.69 9.69-2.81 14.48-2.02 9.62-4.64 19.1-7.59 28.45l-2.29 6.99-2.51 6.9c-.81 2.31-1.74 4.57-2.64 6.84-.93 2.26-1.77 4.56-2.78 6.78-3.79 9-8.1 17.74-12.64 26.32-9.19 17.1-19.75 33.31-31.36 48.53-5.77 7.64-11.84 15.01-18.09 22.17-6.26 7.16-12.68 14.14-19.3 20.87-13.22 13.49-27.07 26.2-41.28 38.28-14.19 12.1-28.76 23.58-43.23 34.85-7.23 5.64-14.44 11.22-21.47 16.83-3.49 2.81-6.98 5.62-10.3 8.46-3.33 2.84-6.6 5.7-9.54 8.58-2.94 2.85-5.66 5.8-7.48 8.37-.53.67-.79 1.21-1.15 1.77-.15.19-.43.76-.66 1.2l-.72 1.39c-.99 1.82-1.87 3.76-2.79 5.67-3.57 7.74-6.61 16.03-9.72 24.79-3.11 8.74-6.34 17.96-10.67 27.28-2.21 4.66-4.72 9.32-7.61 13.87-2.99 4.52-6.34 8.89-10.14 12.9-7.67 7.96-16.91 14.33-26.46 18.57-9.57 4.32-19.35 6.99-29 8.79l-3.62.63c-1.21.22-2.42.42-3.61.55l-7.2.9c-4.77.4-9.56.85-14.28.99-4.57.26-9.93.31-14.84 0-2.49-.14-4.94-.37-7.39-.61-2.41-.31-4.87-.54-7.24-.94-9.57-1.43-18.84-3.48-27.93-5.86s-18-5.1-26.8-8c-17.6-5.81-34.77-12.35-51.77-19.11-17-6.77-33.8-13.79-50.55-20.75-16.75-6.97-33.44-13.89-50.16-20.42-16.71-6.51-33.47-12.68-50.23-17.58-8.37-2.43-16.75-4.56-24.98-6.01-2.04-.31-4.11-.71-6.12-.92-1.01-.12-2.03-.27-3.03-.37l-2.98-.25c-3.93-.25-7.79-.32-11.3.04-3.49.37-6.64 1.12-9.05 2.22-2.43 1.11-4.04 2.41-5.3 4.1-.2.17-.31.45-.45.69s-.29.48-.44.71c-.18.21-.26.54-.39.81q-.18.42-.39.84c-.16.25-.23.62-.33.94l-.32.99-.17.5-.16.68-.33 1.37c-.82 3.62-1.21 7.07-1.09 10.07.12 3.02.81 5.48 1.9 7.8 1.13 2.3 2.91 4.51 5.3 6.7 2.38 2.18 5.45 4.21 8.79 6.1 3.36 1.88 7.04 3.6 10.88 5.19 7.72 3.17 16 5.88 24.47 8.42 8.46 2.55 17.12 4.93 25.83 7.33 17.44 4.79 35.11 9.66 52.66 15.26 17.56 5.58 35.04 11.85 52.21 19.07 17.16 7.23 34.04 15.37 50.37 24.63 8.17 4.62 16.21 9.5 24.11 14.62 1.96 1.29 3.96 2.57 5.89 3.88l5.78 3.91c3.84 2.64 7.66 5.31 11.46 8.03 15.17 10.95 30.1 22.43 44.19 35.88 3.51 3.4 6.99 6.87 10.35 10.65 3.37 3.77 6.67 7.73 9.8 12.23l1.17 1.69 1.14 1.8c.76 1.17 1.49 2.48 2.21 3.78.37.63.71 1.34 1.06 2.05.34.71.69 1.4 1.02 2.13.64 1.57 1.29 3.03 1.83 4.84 1.07 3.46 2.03 7.54 1.63 12.78-.16 1.36-.33 2.68-.65 4.04-.4 1.41-.77 2.79-1.39 4.15-.64 1.34-1.27 2.74-2.13 3.91-.83 1.2-1.72 2.41-2.69 3.35-.48.49-.97.98-1.47 1.45s-.98.81-1.48 1.2c-.5.38-1.01.75-1.52 1.11s-.97.59-1.47.89c-.98.55-2 1.12-2.9 1.47l-1.4.58c-.47.19-.94.38-1.37.5-.87.28-1.75.54-2.64.79-.83.2-1.65.37-2.48.54-.85.19-1.61.29-2.39.39-.77.1-1.58.23-2.32.29-6 .53-11.35.2-16.5-.38-10.26-1.21-19.68-3.56-28.9-6.25-18.36-5.48-35.75-12.51-52.73-20.24-8.49-3.87-16.86-7.94-25.14-12.15-8.25-4.18-16.57-8.67-24.41-12.87-15.91-8.46-31.93-16.68-48.07-24.51-16.15-7.82-32.4-15.34-48.78-22.29-16.37-6.93-32.87-13.41-49.41-18.74-8.25-2.69-16.52-5.07-24.67-6.93-4.08-.94-8.12-1.73-12.06-2.32s-7.8-1.01-11.38-1.12c-3.54-.11-6.93.09-9.2.65-1.19.23-1.99.58-2.38.78-.4.21-.32.21 0-.13.31-.32.58-.89.59-.96 0-.01 0-.03-.01-.05 0 .02.01.05.01.07 0 .06-.06.04-.04.2 0 .12-.02.24-.04.37.02.2.02.39.02.58-.03.17.03.46.05.71.04.27 0 .49.08.81.12.63.16 1.22.37 1.96l.24 1.07.33 1.15c.19.75.49 1.58.76 2.4.25.81.62 1.67.94 2.52.3.84.72 1.73 1.09 2.6.36.87.79 1.76 1.21 2.65l.63 1.34c.21.41.4.73.6 1.1a34.6 34.6 0 0 0 5.25 7.69c1.99 2.22 4.24 4.18 6.98 6.01 2.73 1.84 5.97 3.54 9.71 5.29 3.73 1.76 7.97 3.54 12.57 5.76 4.59 2.22 9.6 4.89 14.5 8.5 4.9 3.59 9.61 8.17 13.4 13.33 3.8 5.15 6.76 10.75 8.92 16.3.57 1.39.99 2.77 1.47 4.15l.7 2.08.57 2.06 1.1 4.11.85 4.05c1.11 5.41 1.74 10.67 2.2 15.88l.63 6.03.07.72.13.7.25 1.4.49 2.8c.41 1.83.9 3.63 1.35 5.44l.88 2.62.43 1.32.21.66.27.63c2.66 6.83 6.45 13.04 11.16 18.36 4.76 5.28 10.41 9.67 16.71 13.13 6.34 3.37 13.35 5.65 20.75 6.85 7.41 1.14 15.18 1 23.06-.27 7.88-1.29 15.89-3.75 23.72-7.45 7.87-3.64 15.55-8.43 23.3-13.9Z" fill="#000000" data-color="4"/>
    </g>
</svg>
